PathFileType	4	(X/Y/Z)	C:\Users\Biomechanik\SynologyDrive\AlexP\Athlete_03\Athlete_3_22_07_06\sq_85_EMG\marker_experimental.trc
DataRate	CameraRate	NumFrames	NumMarkers	Units	OrigDataRate	OrigDataStartFrame	OrigNumFrames
200.000000	200.000000	4	58	mm	200.000000	1158	1544
Frame#	Time	BL			BR			GLAB			RFHD			LFHD			C7			T6			SPINMOL			SPINM2			SPINM3			T12			BELTOL			BELT2			BELT3			SACROL			SACR2			SACR3			LTHOL			LTH2			LTH3			LSHAOL			LSHA2			LSHA3			LHEE			LTOE			LM5			RTHOL			RTH2			RTH3			RSHAOL			RSHA2			RSHA3			RHEE			RTOE			RM5			STRN			XIPH			LACR			LUAOL			LUA2			LUA3			LLAOL			LLA2			LLA3			LWRU			RACR			RUAOL			RUA3			RLAOL			RLA2			RLA3			RWRU			USERMO0			USERMO1			USERMO2			USERMO3			USERMO4			USERMO5			
		X1	Y1	Z1	X2	Y2	Z2	X3	Y3	Z3	X4	Y4	Z4	X5	Y5	Z5	X6	Y6	Z6	X7	Y7	Z7	X8	Y8	Z8	X9	Y9	Z9	X10	Y10	Z10	X11	Y11	Z11	X12	Y12	Z12	X13	Y13	Z13	X14	Y14	Z14	X15	Y15	Z15	X16	Y16	Z16	X17	Y17	Z17	X18	Y18	Z18	X19	Y19	Z19	X20	Y20	Z20	X21	Y21	Z21	X22	Y22	Z22	X23	Y23	Z23	X24	Y24	Z24	X25	Y25	Z25	X26	Y26	Z26	X27	Y27	Z27	X28	Y28	Z28	X29	Y29	Z29	X30	Y30	Z30	X31	Y31	Z31	X32	Y32	Z32	X33	Y33	Z33	X34	Y34	Z34	X35	Y35	Z35	X36	Y36	Z36	X37	Y37	Z37	X38	Y38	Z38	X39	Y39	Z39	X40	Y40	Z40	X41	Y41	Z41	X42	Y42	Z42	X43	Y43	Z43	X44	Y44	Z44	X45	Y45	Z45	X46	Y46	Z46	X47	Y47	Z47	X48	Y48	Z48	X49	Y49	Z49	X50	Y50	Z50	X51	Y51	Z51	X52	Y52	Z52	X53	Y53	Z53	X54	Y54	Z54	X55	Y55	Z55	X56	Y56	Z56	X57	Y57	Z57	X58	Y58	Z58	

1159	5.79	114.0681228637695	925.8212280273439	-2272.998779296875	262.9693908691406	873.2893676757812	-56.91501235961908	539.4359741210938	1014.197143554688	-1152.831787109375	479.89013671875	1037.376953125	-1076.10595703125	479.67431640625	1033.662231445312	-1234.905029296875	298.1789855957031	977.7005615234376	-1146.943359375	123.7107696533203	901.0625000000001	-1148.57958984375	101.4600219726562	888.5424804687501	-1157.254150390625	47.92803573608398	857.3765258789064	-1107.077392578125	54.98052597045898	847.6918945312501	-1155.496215820312	26.77659225463867	824.3608398437501	-1152.488037109375	-10.10564041137695	835.3572387695314	-1152.382202148438	-57.81209564208984	800.1125488281251	-1098.85791015625	-63.76816177368164	804.0614013671876	-1148.556640625	-132.9647216796875	744.6050415039064	-1174.076904296875	-118.2091674804688	748.1156616210939	-1125.36181640625	-173.1148223876953	711.8878784179689	-1133.111450195312	-7.575533866882324	602.8791503906251	-1425.295532226562	7.006215572357178	528.4231567382814	-1450.510498046875	38.20985794067383	568.3078002929689	-1449.989624023438	150.5228271484375	320.8108825683595	-1564.61865234375	106.8384628295898	255.039047241211	-1562.596069335938	155.6118927001953	259.3323059082032	-1571.822265625	67.44272613525391	42.01205825805673	-1508.549438476562	270.3531494140625	48.2547149658204	-1553.0390625	211.3213348388672	23.52924156188975	-1649.734375	15.00307273864746	570.9192504882812	-880.6177978515625	88.74636840820312	579.20849609375	-854.0368041992188	59.87518310546875	538.9217529296875	-851.5762329101562	121.2008514404297	314.1648254394532	-764.5341796875	148.4192504882812	241.1369323730469	-750.7257690429688	103.4304809570312	255.087142944336	-768.2589721679688	36.4611930847168	41.12498855590825	-839.5903930664062	229.5696258544922	44.83339691162114	-764.01025390625	162.7131652832031	36.42932891845707	-677.4348754882812	341.2574157714844	808.1548461914064	-1169.818237304688	257.7682189941406	665.9821166992189	-1169.598388671875	245.9573974609375	933.9622802734376	-1342.753051757812	88.62265777587891	890.1432495117189	-1377.971923828125	40.62959289550781	865.6461791992189	-1338.398071289062	41.4212760925293	859.1030883789064	-1387.8779296875	20.66725540161133	828.2448730468751	-1462.995849609375	72.81809234619141	832.1152954101564	-1502.01318359375	74.05672454833984	863.6503906250001	-1463.23681640625	136.2960510253906	893.6519775390626	-1506.853271484375	276.4921875	912.3656005859376	-970.8208618164062	132.7587280273438	839.484375	-916.6004028320312	70.16191864013672	835.03125	-918.9188842773438	84.36325836181641	816.0169677734375	-839.6478271484375	136.0809783935547	850.216796875	-856.58837890625	135.2820892333984	835.4678344726562	-807.7857666015625	177.1245727539062	868.57421875	-797.2262573242188	0.3951629996299744	0.1278049945831299	-0.6009860038757324	0.2086759954690933	0.1586959958076477	-0.1694180071353912	0.1022600010037422	0.02145520038902761	-0.1773699969053268	0.04975099861621857	0.2142550051212311	-0.7942259907722473	0.3695819973945618	2.807310104370117	-0.3732129931449888	2.696870088577271	0	0	
1160	5.795	113.7303466796875	926.8847656250001	-2272.982421875	262.6882629394531	874.59521484375	-56.89619827270502	539.2896728515625	1015.476379394531	-1153.037231445312	479.8468017578125	1038.670043945312	-1076.230712890625	479.4261474609375	1034.945922851562	-1235.032958984375	297.9776916503906	978.9468994140626	-1146.91796875	123.5303955078125	902.2413940429689	-1148.549560546875	101.2789535522461	889.7054443359376	-1157.2060546875	47.79001998901367	858.4863891601564	-1107.015991210938	54.83304214477539	848.8165893554689	-1155.438842773438	26.64088439941406	825.4583740234376	-1152.430908203125	-10.26077747344971	836.4045410156251	-1152.316040039062	-57.95341491699219	801.1378173828126	-1098.77978515625	-63.92256927490234	805.0964965820314	-1148.475830078125	-133.0985717773438	745.6628417968751	-1173.956787109375	-118.3058700561523	749.1604003906251	-1125.245849609375	-173.1949462890625	712.9036865234376	-1132.9716796875	-7.439620971679688	603.4645385742189	-1425.084716796875	7.011895179748535	528.9603271484376	-1450.20458984375	38.25597381591797	568.8042602539064	-1449.720458984375	150.4923248291016	320.8751525878907	-1564.338989257812	106.8116073608398	255.0851287841798	-1562.43115234375	155.6013031005859	259.4027404785157	-1571.594848632812	67.43462371826172	41.99953460693369	-1508.56396484375	270.3592529296875	48.24929046630869	-1553.0185546875	211.3305358886719	23.55121231079112	-1649.71875	14.95091438293457	571.50634765625	-880.5044555664062	88.71640777587891	579.6197509765625	-853.912841796875	59.76095962524414	539.3944091796875	-851.4962768554688	120.9733963012695	314.2113342285157	-764.4827270507812	148.2574615478516	241.2039337158204	-750.6888427734375	103.2440032958984	255.1154327392579	-768.1948852539062	36.42794418334961	41.11288070678716	-839.5482788085938	229.5552062988281	44.85410308837896	-763.988037109375	162.6973571777344	36.41149902343754	-677.4091796875	341.118896484375	809.4216308593751	-1169.822143554688	257.6744689941406	667.2257080078126	-1169.6220703125	245.7039184570312	935.1750488281251	-1342.733154296875	88.36913299560547	891.3183593750001	-1377.919799804688	40.42376708984375	866.8044433593751	-1338.318481445312	41.19861221313477	860.2542114257814	-1387.800903320312	20.43379592895508	829.3859863281251	-1462.910766601562	72.56645202636719	833.2593383789064	-1501.953735351562	73.81938934326172	864.8018188476564	-1463.182373046875	136.0318908691406	894.8148803710939	-1506.830932617188	276.2497863769531	913.5934448242189	-970.84814453125	132.5574951171875	840.7174682617188	-916.6250610351562	69.96852874755859	836.2431640625	-918.9932250976562	84.13408660888672	817.3011474609375	-839.7026977539062	135.8768157958984	851.47900390625	-856.6290893554688	135.0319671630859	836.76904296875	-807.8168334960938	176.8689880371094	869.85546875	-797.2160034179688	0.3931339979171753	0.1228979974985123	-0.600944995880127	0.2063679993152618	0.1598269939422607	-0.1690579950809479	0.1061879992485046	0.02067510038614274	-0.1777250021696091	0.05059219896793365	0.2162739932537079	-0.8014240264892578	0.3674069941043854	2.792409896850586	-0.3733479976654051	2.68572998046875	0	0	
1161	5.8	113.3906097412109	927.9367065429689	-2272.96142578125	262.4069213867188	875.8988647460938	-56.87302398681635	539.1424560546875	1016.768493652344	-1153.235107421875	479.80322265625	1039.95361328125	-1076.340454101562	479.1715393066406	1036.260498046875	-1235.147583007812	297.7842102050781	980.1889038085939	-1146.892456054688	123.3599548339844	903.4143676757814	-1148.515380859375	101.1069717407227	890.8626098632814	-1157.153198242188	47.6639289855957	859.5863647460939	-1106.94970703125	54.69690704345703	849.9332275390626	-1155.376953125	26.51676559448242	826.5459594726564	-1152.368041992188	-10.40575695037842	837.4414672851564	-1152.244384765625	-58.08175277709961	802.1503906250001	-1098.695678710938	-64.06569671630859	806.1197509765626	-1148.388793945312	-133.2205047607422	746.7111206054689	-1173.83154296875	-118.3900833129883	750.1949462890626	-1125.124755859375	-173.2619018554688	713.9088134765626	-1132.82763671875	-7.301311492919922	604.0455322265626	-1424.880615234375	7.021955013275146	529.4927978515626	-1449.907592773438	38.30031585693359	569.2999267578126	-1449.461669921875	150.457275390625	320.9378356933595	-1564.066528320312	106.7798156738281	255.1308135986329	-1562.268432617188	155.5854339599609	259.4714965820314	-1571.371704101562	67.42514801025391	41.98548507690439	-1508.578735351562	270.3642883300781	48.24475097656259	-1552.997436523438	211.3409423828125	23.57457160949717	-1649.700561523438	14.91225051879883	572.0858154296875	-880.3912963867188	88.70273590087891	580.0245971679688	-853.7887573242188	59.65957641601562	539.8600463867188	-851.41552734375	120.7527847290039	314.2571716308594	-764.4295654296875	148.1014709472656	241.2689208984376	-750.6492309570312	103.0633850097656	255.1429595947266	-768.1275634765625	36.39568328857422	41.10270309448247	-839.5059814453125	229.5407409667969	44.8754386901856	-763.9642944335938	162.6805114746094	36.39264297485356	-677.382080078125	340.9912109375	810.6873168945314	-1169.831298828125	257.5929260253906	668.4670410156251	-1169.653198242188	245.4538726806641	936.3771362304689	-1342.714233398438	88.11641693115234	892.5005493164064	-1377.851806640625	40.22143173217773	867.9697875976564	-1338.221313476562	40.97581100463867	861.4164428710939	-1387.707641601562	20.19912719726562	830.5388183593751	-1462.809936523438	72.30738830566406	834.4107666015626	-1501.884155273438	73.58167266845703	865.9600219726564	-1463.117309570312	135.7689056396484	895.9755249023439	-1506.802490234375	276.0198364257812	914.8201293945314	-970.8738403320312	132.3589477539062	841.9373779296875	-916.6453247070312	69.77954864501953	837.4363403320312	-919.0646362304688	83.90847015380859	818.5679321289062	-839.75341796875	135.6733703613281	852.7304077148438	-856.667236328125	134.7838592529297	838.0587158203125	-807.8453369140625	176.6156158447266	871.1299438476562	-797.2022094726562	0.391618013381958	0.1177780032157898	-0.6015170216560364	0.2040649950504303	0.1619700044393539	-0.1692589968442917	0.1098999977111816	0.02007889933884145	-0.1773560047149658	0.05147070065140724	0.2181629985570908	-0.8090739846229553	0.3656980097293854	2.775759935379028	-0.3730620145797728	2.673979997634888	0	0	
1162	5.805	113.051399230957	928.9763183593751	-2272.936279296875	262.1281433105469	877.1997680664062	-56.84584808349604	538.9931030273438	1018.070251464844	-1153.420654296875	479.7548217773438	1041.228515625	-1076.4345703125	478.914306640625	1037.600830078125	-1235.248046875	297.5957946777344	981.4277954101564	-1146.86962890625	123.1962814331055	904.5816040039064	-1148.476440429688	100.9407348632812	892.0137939453126	-1157.094360351562	47.54646682739258	860.6763916015626	-1106.877075195312	54.56870651245117	851.0417480468751	-1155.309204101562	26.40067672729492	827.6233520507814	-1152.297973632812	-10.54395961761475	838.4682617187501	-1152.166015625	-58.20039367675781	803.1499023437501	-1098.604736328125	-64.20066070556641	807.1309814453126	-1148.294555664062	-133.3334808349609	747.7477416992189	-1173.70166015625	-118.4656295776367	751.2173461914064	-1124.99853515625	-173.3187561035156	714.9003295898439	-1132.680297851562	-7.161669254302979	604.6215209960939	-1424.68408203125	7.035669803619385	530.0199584960939	-1449.62060546875	38.34416580200195	569.7930908203126	-1449.213623046875	150.4171905517578	320.9989013671876	-1563.801513671875	106.7429656982422	255.1764373779298	-1562.10791015625	155.5637359619141	259.5383911132814	-1571.152465820312	67.41376495361328	41.96937942504892	-1508.593994140625	270.3679809570312	48.24121093750009	-1552.975341796875	211.3526000976562	23.5996093750001	-1649.679443359375	14.88586044311523	572.6558227539062	-880.2808227539062	88.70419311523438	580.421875	-853.6675415039062	59.57043075561523	540.3172607421875	-851.3369140625	120.5400772094727	314.3023376464844	-764.3773193359375	147.9523468017578	241.3321533203126	-750.6091918945312	102.8897094726562	255.1698760986329	-768.0591430664062	36.36470031738281	41.09451293945317	-839.4638671875	229.5264129638672	44.89708328247075	-763.939208984375	162.6627960205078	36.37296676635746	-677.3538208007812	340.87109375	811.9520874023439	-1169.844116210938	257.5208129882812	669.7063598632814	-1169.687622070312	245.2050628662109	937.5675048828126	-1342.696411132812	87.86259460449219	893.6865844726564	-1377.768432617188	40.01975250244141	869.1383666992189	-1338.108032226562	40.75053405761719	862.5863647460939	-1387.599609375	19.96207809448242	831.7015380859376	-1462.695068359375	72.03974914550781	835.5690917968751	-1501.805297851562	73.34133148193359	867.1240844726564	-1463.042114257812	135.5055389404297	897.1344604492189	-1506.76806640625	275.8000793457031	916.0500488281251	-970.8978881835938	132.1620178222656	843.143798828125	-916.65869140625	69.59367370605469	838.609130859375	-919.1290893554688	83.68678283691406	819.8138427734375	-839.7967529296875	135.4694671630859	853.9699096679688	-856.700439453125	134.5387573242188	839.3350219726562	-807.8692016601562	176.3640594482422	872.3977661132812	-797.1846313476562	0.3903549909591675	0.1127090007066727	-0.6031889915466309	0.2019550055265427	0.1651419997215271	-0.169733002781868	0.1132510006427765	0.01968340016901494	-0.1762329936027527	0.05239859968423843	0.2197030037641526	-0.8166970014572144	0.3645600080490112	2.757719993591309	-0.3724339902400969	2.661910057067871	0	0	
